<svg width="722" height="165" viewBox="0 0 722 165" fill="none" xmlns="http://www.w3.org/2000/svg">
<path d="M231.525 108.528L261.236 146.36H239.067L220.783 122.43L202.27 146.36H180.329L210.041 108.528H231.525Z" fill="#231815"/>
<path d="M210.041 108.756L180.329 70.9245H202.27L220.783 94.8541L239.067 70.9245H261.236L231.525 108.756H210.041Z" fill="#231815"/>
<path d="M270.379 44.2602C270.379 37.6511 276.092 32.8652 282.721 32.8652C289.577 32.8652 294.834 37.6511 294.834 44.2602C294.834 50.6414 289.577 55.6552 282.721 55.6552C276.092 55.6552 270.379 50.6414 270.379 44.2602ZM273.35 146.36V70.9246H292.091V146.36H273.35Z" fill="#231815"/>
<path d="M386.941 103.97V146.36H368.199V105.338C368.199 93.2589 360.886 86.6498 352.429 86.6498C343.744 86.6498 333.231 91.6636 333.231 106.249V146.36H314.489V70.9246H333.231V82.7755C337.116 73.2036 349.001 68.8735 356.772 68.8735C376.199 68.8735 386.941 82.0918 386.941 103.97Z" fill="#231815"/>
<path d="M403.625 108.528C403.625 84.5987 422.824 68.8735 444.765 68.8735C457.792 68.8735 468.534 74.7989 475.62 83.4592L462.363 93.9426C458.478 89.1567 452.079 86.4219 445.222 86.4219C432.194 86.4219 422.595 95.7658 422.595 108.528C422.595 121.063 431.966 130.862 445.222 130.862C452.079 130.862 458.478 127.9 462.363 123.342L475.62 133.825C468.763 142.485 458.021 148.411 444.765 148.411C422.824 148.411 403.625 132.458 403.625 108.528Z" fill="#231815"/>
<path d="M565.212 115.137H506.474C508.531 125.621 516.759 131.318 527.958 131.318C535.958 131.318 543.957 127.672 548.299 121.519L560.87 131.09C554.013 142.03 540.529 148.183 526.587 148.183C503.96 148.183 486.819 132.002 486.819 108.528C486.819 84.3708 504.874 68.8735 526.587 68.8735C548.071 68.8735 565.212 84.1429 565.212 107.845C565.441 109.896 565.441 112.403 565.212 115.137ZM546.928 102.147C545.785 91.8915 537.786 85.7382 527.044 85.7382C516.988 85.7382 508.76 90.752 506.474 102.147H546.928Z" fill="#231815"/>
<path d="M635.835 71.6082L632.179 89.3845C627.836 87.1054 623.951 86.6496 621.208 86.6496C608.866 86.6496 602.01 98.9563 602.01 120.151V146.587H582.811V70.9245H601.552V87.1054C605.666 74.5709 613.894 69.1013 623.265 69.1013C627.836 68.8734 632.864 70.0129 635.835 71.6082Z" fill="#231815"/>
<path d="M721.543 115.137H662.805C664.862 125.621 673.09 131.318 684.289 131.318C692.288 131.318 700.287 127.672 704.63 121.519L717.2 131.09C710.344 142.03 696.859 148.183 682.917 148.183C660.291 148.183 643.149 132.002 643.149 108.528C643.149 84.3708 661.205 68.8735 682.917 68.8735C704.401 68.8735 721.543 84.1429 721.543 107.845C722 109.896 721.772 112.403 721.543 115.137ZM703.259 102.147C702.116 91.8915 694.117 85.7382 683.375 85.7382C673.318 85.7382 665.09 90.752 662.805 102.147H703.259Z" fill="#231815"/>
<path d="M120.905 110.123V14.861C120.905 14.861 120.905 -0.636214 136.446 0.0474877C154.273 0.95909 153.131 18.5074 153.131 18.5074V115.137L120.905 110.123Z" fill="#518C3C"/>
<path d="M0 160.489V143.853C0 143.853 0 129.951 15.5416 130.635C33.3688 131.318 32.226 147.043 32.226 147.043V164.82L0 160.489Z" fill="#518C3C"/>
<path d="M80.6793 131.546V62.2643C80.6793 62.2643 80.6793 48.3624 96.2209 49.0461C114.048 49.7298 112.905 65.4549 112.905 65.4549V136.104L80.6793 131.546Z" fill="#518C3C"/>
<path d="M40.2253 149.322V106.933C40.2253 106.933 40.2253 93.0308 55.767 93.7145C73.5941 94.3982 72.4514 116.733 72.4514 116.733V153.652L40.2253 149.322Z" fill="#518C3C"/>
</svg>
